<svg width="41" height="50" viewBox="0 0 41 50" fill="none" xmlns="http://www.w3.org/2000/svg">
<mask id="path-1-outside-1_3_22" maskUnits="userSpaceOnUse" x="-7" y="-7" width="55" height="64" fill="black">
<rect fill="white" x="-7" y="-7" width="55" height="64"/>
<path d="M0.216 14.12C0.216 10.024 2.02933 6.696 5.656 4.136C9.28267 1.576 14.1253 0.295998 20.184 0.295998C23.8107 0.295998 26.9893 0.722664 29.72 1.576C32.4507 2.38666 34.5413 3.51733 35.992 4.968C38.8933 7.82666 40.344 11.112 40.344 14.824C40.344 18.536 38.8507 21.6507 35.864 24.168C32.92 26.6427 29.144 27.88 24.536 27.88C24.024 27.88 23.256 27.8373 22.232 27.752L22.808 23.08C28.4827 23.08 31.32 20.4133 31.32 15.08C31.32 12.6053 30.2747 10.5147 28.184 8.808C26.008 7.016 22.7653 6.12 18.456 6.12C14.1467 6.12 10.7333 7.22933 8.216 9.448C6.72267 10.728 5.976 12.1147 5.976 13.608C5.976 16.424 7.66133 18.024 11.032 18.408L10.264 23.144C7.32 23.016 4.90933 22.0773 3.032 20.328C1.15467 18.5787 0.216 16.5093 0.216 14.12ZM22.744 9.448L19.928 27.752C25.3467 30.3547 28.056 34.1947 28.056 39.272C28.056 42.984 27.0747 45.608 25.112 47.144C23.192 48.6373 20.8667 49.384 18.136 49.384C15.4053 49.384 13.272 48.68 11.736 47.272C10.2 45.864 9.432 43.9653 9.432 41.576C9.432 41.0213 9.45333 40.5947 9.496 40.296L13.336 10.664C15.5547 9.59733 17.432 9.064 18.968 9.064C20.504 9.064 21.7627 9.192 22.744 9.448ZM19.992 43.56C21.016 43.56 21.8907 43.1973 22.616 42.472C23.384 41.7467 23.768 40.5307 23.768 38.824C23.768 35.7947 22.3173 33.4053 19.416 31.656C18.7333 36.648 18.392 39.656 18.392 40.68C18.392 41.6613 18.5413 42.3867 18.84 42.856C19.1813 43.3253 19.5653 43.56 19.992 43.56Z"/>
</mask>
<path d="M0.216 14.12C0.216 10.024 2.02933 6.696 5.656 4.136C9.28267 1.576 14.1253 0.295998 20.184 0.295998C23.8107 0.295998 26.9893 0.722664 29.72 1.576C32.4507 2.38666 34.5413 3.51733 35.992 4.968C38.8933 7.82666 40.344 11.112 40.344 14.824C40.344 18.536 38.8507 21.6507 35.864 24.168C32.92 26.6427 29.144 27.88 24.536 27.88C24.024 27.88 23.256 27.8373 22.232 27.752L22.808 23.08C28.4827 23.08 31.32 20.4133 31.32 15.08C31.32 12.6053 30.2747 10.5147 28.184 8.808C26.008 7.016 22.7653 6.12 18.456 6.12C14.1467 6.12 10.7333 7.22933 8.216 9.448C6.72267 10.728 5.976 12.1147 5.976 13.608C5.976 16.424 7.66133 18.024 11.032 18.408L10.264 23.144C7.32 23.016 4.90933 22.0773 3.032 20.328C1.15467 18.5787 0.216 16.5093 0.216 14.12ZM22.744 9.448L19.928 27.752C25.3467 30.3547 28.056 34.1947 28.056 39.272C28.056 42.984 27.0747 45.608 25.112 47.144C23.192 48.6373 20.8667 49.384 18.136 49.384C15.4053 49.384 13.272 48.68 11.736 47.272C10.2 45.864 9.432 43.9653 9.432 41.576C9.432 41.0213 9.45333 40.5947 9.496 40.296L13.336 10.664C15.5547 9.59733 17.432 9.064 18.968 9.064C20.504 9.064 21.7627 9.192 22.744 9.448ZM19.992 43.56C21.016 43.56 21.8907 43.1973 22.616 42.472C23.384 41.7467 23.768 40.5307 23.768 38.824C23.768 35.7947 22.3173 33.4053 19.416 31.656C18.7333 36.648 18.392 39.656 18.392 40.68C18.392 41.6613 18.5413 42.3867 18.84 42.856C19.1813 43.3253 19.5653 43.56 19.992 43.56Z" fill="white"/>
<path d="M5.656 4.136L1.61922 -1.58278L1.61922 -1.58278L5.656 4.136ZM29.72 1.576L27.6321 8.25736L27.6798 8.27228L27.7278 8.28652L29.72 1.576ZM35.992 4.968L31.0422 9.91774L31.0606 9.93608L31.0791 9.95428L35.992 4.968ZM35.864 24.168L40.3682 29.5264L40.3753 29.5204L35.864 24.168ZM22.232 27.752L15.2846 26.8955L14.3935 34.1231L21.6507 34.7278L22.232 27.752ZM22.808 23.08V16.08H16.618L15.8606 22.2235L22.808 23.08ZM28.184 8.808L23.7341 14.2115L23.7457 14.2211L23.7574 14.2306L28.184 8.808ZM8.216 9.448L12.7715 14.7628L12.8082 14.7314L12.8444 14.6995L8.216 9.448ZM11.032 18.408L17.9417 19.5285L19.1166 12.2837L11.8243 11.453L11.032 18.408ZM10.264 23.144L9.95994 30.1374L16.1775 30.4077L17.1737 24.2645L10.264 23.144ZM3.032 20.328L-1.74008 25.4493L-1.74008 25.4493L3.032 20.328ZM22.744 9.448L29.6626 10.5124L30.6231 4.26915L24.5109 2.67468L22.744 9.448ZM19.928 27.752L13.0094 26.6876L12.2205 31.8156L16.8973 34.0619L19.928 27.752ZM25.112 47.144L29.4096 52.6695L29.4179 52.663L29.4262 52.6565L25.112 47.144ZM11.736 47.272L16.4661 42.1119L16.4661 42.1119L11.736 47.272ZM9.496 40.296L16.4256 41.286L16.4321 41.2408L16.438 41.1956L9.496 40.296ZM13.336 10.664L10.3029 4.35523L6.88188 5.99997L6.39405 9.76439L13.336 10.664ZM22.616 42.472L17.8096 37.3829L17.7369 37.4516L17.6663 37.5223L22.616 42.472ZM19.416 31.656L23.0304 25.6613L13.9217 20.1693L12.4806 30.7076L19.416 31.656ZM18.84 42.856L12.9344 46.6141L13.051 46.7975L13.1789 46.9732L18.84 42.856ZM7.216 14.12C7.216 12.513 7.7418 11.2319 9.69278 9.85477L1.61922 -1.58278C-3.68314 2.16006 -6.784 7.53498 -6.784 14.12H7.216ZM9.69278 9.85477C11.7774 8.3833 15.0551 7.296 20.184 7.296V-6.704C13.1955 -6.704 6.78797 -5.23131 1.61922 -1.58278L9.69278 9.85477ZM20.184 7.296C23.2827 7.296 25.73 7.66296 27.6321 8.25736L31.8079 -5.10536C28.2487 -6.21763 24.3387 -6.704 20.184 -6.704V7.296ZM27.7278 8.28652C29.7528 8.8877 30.6733 9.54883 31.0422 9.91774L40.9418 0.0182554C38.4093 -2.51417 35.1485 -4.11437 31.7122 -5.13453L27.7278 8.28652ZM31.0791 9.95428C32.7883 11.6383 33.344 13.1783 33.344 14.824H47.344C47.344 9.04569 44.9984 4.01498 40.9049 -0.0182787L31.0791 9.95428ZM33.344 14.824C33.344 16.3519 32.8557 17.5488 31.3527 18.8156L40.3753 29.5204C44.8456 25.7526 47.344 20.7201 47.344 14.824H33.344ZM31.3598 18.8096C29.9157 20.0235 27.8371 20.88 24.536 20.88V34.88C30.4509 34.88 35.9243 33.2618 40.3682 29.5264L31.3598 18.8096ZM24.536 20.88C24.3263 20.88 23.7953 20.858 22.8133 20.7762L21.6507 34.7278C22.7167 34.8167 23.7217 34.88 24.536 34.88V20.88ZM29.1794 28.6085L29.7554 23.9365L15.8606 22.2235L15.2846 26.8955L29.1794 28.6085ZM22.808 30.08C26.6199 30.08 30.7813 29.1927 33.986 26.1808C37.2723 23.0921 38.32 18.9406 38.32 15.08H24.32C24.32 15.812 24.2204 16.1562 24.1906 16.2401C24.1744 16.2858 24.2235 16.1433 24.398 15.9792C24.7654 15.6339 24.6707 16.08 22.808 16.08V30.08ZM38.32 15.08C38.32 10.2953 36.1618 6.28425 32.6106 3.38537L23.7574 14.2306C24.154 14.5544 24.2582 14.7529 24.275 14.7865C24.2867 14.8098 24.2941 14.8299 24.3006 14.8584C24.3075 14.8884 24.32 14.9574 24.32 15.08H38.32ZM32.634 3.40449C28.6919 0.158068 23.5697 -0.880001 18.456 -0.880001V13.12C21.9609 13.12 23.3241 13.8739 23.7341 14.2115L32.634 3.40449ZM18.456 -0.880001C12.9401 -0.880001 7.71308 0.560516 3.58759 4.19654L12.8444 14.6995C13.7536 13.8981 15.3532 13.12 18.456 13.12V-0.880001ZM3.66046 4.1332C1.13905 6.29441 -1.024 9.46999 -1.024 13.608H12.976C12.976 13.8251 12.948 14.0488 12.892 14.2647C12.8364 14.4789 12.7632 14.648 12.6993 14.7667C12.5765 14.9947 12.5224 14.9764 12.7715 14.7628L3.66046 4.1332ZM-1.024 13.608C-1.024 16.4982 -0.102578 19.6013 2.42044 21.9966C4.77 24.2272 7.71126 25.075 10.2397 25.363L11.8243 11.453C10.9821 11.357 11.3953 11.2128 12.0596 11.8434C12.4107 12.1767 12.6759 12.5872 12.8319 12.9961C12.9775 13.3777 12.976 13.6185 12.976 13.608H-1.024ZM4.12226 17.2875L3.35426 22.0235L17.1737 24.2645L17.9417 19.5285L4.12226 17.2875ZM10.5681 16.1506C9.02694 16.0836 8.28344 15.6534 7.80408 15.2067L-1.74008 25.4493C1.53523 28.5012 5.61306 29.9484 9.95994 30.1374L10.5681 16.1506ZM7.80408 15.2067C7.23014 14.6719 7.216 14.412 7.216 14.12H-6.784C-6.784 18.6066 -4.92081 22.4854 -1.74008 25.4493L7.80408 15.2067ZM15.8254 8.3836L13.0094 26.6876L26.8466 28.8164L29.6626 10.5124L15.8254 8.3836ZM16.8973 34.0619C18.8246 34.9876 19.8036 35.9098 20.3043 36.6195C20.7581 37.2626 21.056 38.0561 21.056 39.272H35.056C35.056 35.4106 33.9993 31.7454 31.7437 28.5485C29.5351 25.4182 26.4501 23.1191 22.9587 21.4421L16.8973 34.0619ZM21.056 39.272C21.056 40.5472 20.8828 41.2531 20.7635 41.572C20.6668 41.8305 20.6423 41.7532 20.7978 41.6315L29.4262 52.6565C33.7873 49.2435 35.056 44.0497 35.056 39.272H21.056ZM20.8144 41.6185C20.2731 42.0396 19.5112 42.384 18.136 42.384V56.384C22.2221 56.384 26.1109 55.2351 29.4096 52.6695L20.8144 41.6185ZM18.136 42.384C17.361 42.384 16.907 42.283 16.6816 42.2086C16.5722 42.1725 16.5144 42.1421 16.4919 42.1292C16.4799 42.1223 16.4735 42.1177 16.471 42.1159C16.4685 42.1141 16.4672 42.113 16.4661 42.1119L7.00593 52.4321C10.1924 55.353 14.2119 56.384 18.136 56.384V42.384ZM16.4661 42.1119C16.4484 42.0958 16.4553 42.0992 16.4713 42.1222C16.4784 42.1323 16.4848 42.1428 16.4899 42.1524C16.4951 42.1619 16.4973 42.1674 16.4972 42.1671C16.4971 42.1668 16.4935 42.1579 16.488 42.1386C16.4825 42.1192 16.4745 42.0876 16.4664 42.0419C16.4499 41.9502 16.432 41.7989 16.432 41.576H2.432C2.432 45.6107 3.80541 49.4983 7.00593 52.4321L16.4661 42.1119ZM16.432 41.576C16.432 41.383 16.4358 41.2582 16.4393 41.1896C16.4409 41.1569 16.4419 41.1479 16.4409 41.1593C16.44 41.1693 16.4359 41.2139 16.4256 41.286L2.56635 39.306C2.45317 40.0983 2.432 40.9155 2.432 41.576H16.432ZM16.438 41.1956L20.278 11.5636L6.39405 9.76439L2.55405 39.3964L16.438 41.1956ZM16.3691 16.9728C17.2065 16.5702 17.8514 16.3309 18.3209 16.1975C18.7967 16.0624 18.994 16.064 18.968 16.064V2.064C15.9358 2.064 12.9607 3.07746 10.3029 4.35523L16.3691 16.9728ZM18.968 16.064C20.18 16.064 20.7871 16.1718 20.9771 16.2213L24.5109 2.67468C22.7382 2.21222 20.828 2.064 18.968 2.064V16.064ZM19.992 50.56C22.8761 50.56 25.5302 49.4573 27.5658 47.4217L17.6663 37.5223C17.8984 37.2901 18.2554 37.0206 18.7349 36.8218C19.2146 36.6229 19.6595 36.56 19.992 36.56V50.56ZM27.4224 47.5611C30.2488 44.8917 30.768 41.3104 30.768 38.824H16.768C16.768 39.188 16.7228 39.1683 16.8049 38.9081C16.8978 38.614 17.1643 37.9924 17.8096 37.3829L27.4224 47.5611ZM30.768 38.824C30.768 33.0126 27.7352 28.4981 23.0304 25.6613L15.8016 37.6507C16.4867 38.0637 16.6704 38.3498 16.6965 38.3928C16.7134 38.4207 16.7239 38.4441 16.7341 38.4823C16.7453 38.524 16.768 38.6293 16.768 38.824H30.768ZM12.4806 30.7076C11.8309 35.4585 11.392 39.057 11.392 40.68H25.392C25.392 40.7293 25.3923 40.5882 25.4311 40.1305C25.4661 39.7166 25.5223 39.16 25.6034 38.4453C25.7654 37.0176 26.0133 35.0772 26.3515 32.6044L12.4806 30.7076ZM11.392 40.68C11.392 42.1051 11.56 44.4544 12.9344 46.6141L24.7456 39.0979C25.1767 39.7753 25.3168 40.3376 25.3602 40.5484C25.4062 40.7719 25.392 40.8395 25.392 40.68H11.392ZM13.1789 46.9732C14.3238 48.5475 16.5762 50.56 19.992 50.56V36.56C21.1384 36.56 22.1899 36.8951 23.0341 37.411C23.8197 37.8911 24.2801 38.4348 24.5011 38.7388L13.1789 46.9732Z" fill="black" mask="url(#path-1-outside-1_3_22)"/>
</svg>
