<svg width="46" height="52" viewBox="0 0 46 52" fill="none" xmlns="http://www.w3.org/2000/svg">
<mask id="path-1-outside-1_3_22" maskUnits="userSpaceOnUse" x="-7" y="-7" width="60" height="66" fill="black">
<rect fill="white" x="-7" y="-7" width="60" height="66"/>
<path d="M45.832 6.752V23.648L39.24 30.24H20.04V49.44H25.16V52H0.2V49.44H5.32V3.36H0.2V0.799999H39.88L45.832 6.752ZM20.04 27.68H31.112V3.36H20.04V27.68Z"/>
</mask>
<path d="M45.832 6.752V23.648L39.24 30.24H20.04V49.44H25.16V52H0.2V49.44H5.32V3.36H0.2V0.799999H39.88L45.832 6.752ZM20.04 27.68H31.112V3.36H20.04V27.68Z" fill="white"/>
<path d="M45.832 6.752H52.832V3.8525L50.7817 1.80225L45.832 6.752ZM45.832 23.648L50.7817 28.5977L52.832 26.5475V23.648H45.832ZM39.24 30.24V37.24H42.1395L44.1897 35.1897L39.24 30.24ZM20.04 30.24V23.24H13.04V30.24H20.04ZM20.04 49.44H13.04V56.44H20.04V49.44ZM25.16 49.44H32.16V42.44H25.16V49.44ZM25.16 52V59H32.16V52H25.16ZM0.2 52H-6.8V59H0.2V52ZM0.2 49.44V42.44H-6.8V49.44H0.2ZM5.32 49.44V56.44H12.32V49.44H5.32ZM5.32 3.36H12.32V-3.64H5.32V3.36ZM0.2 3.36H-6.8V10.36H0.2V3.36ZM0.2 0.799999V-6.2H-6.8V0.799999H0.2ZM39.88 0.799999L44.8297 -4.14975L42.7795 -6.2H39.88V0.799999ZM20.04 27.68H13.04V34.68H20.04V27.68ZM31.112 27.68V34.68H38.112V27.68H31.112ZM31.112 3.36H38.112V-3.64H31.112V3.36ZM20.04 3.36V-3.64H13.04V3.36H20.04ZM38.832 6.752V23.648H52.832V6.752H38.832ZM40.8823 18.6983L34.2903 25.2903L44.1897 35.1897L50.7817 28.5977L40.8823 18.6983ZM39.24 23.24H20.04V37.24H39.24V23.24ZM13.04 30.24V49.44H27.04V30.24H13.04ZM20.04 56.44H25.16V42.44H20.04V56.44ZM18.16 49.44V52H32.16V49.44H18.16ZM25.16 45H0.2V59H25.16V45ZM7.2 52V49.44H-6.8V52H7.2ZM0.2 56.44H5.32V42.44H0.2V56.44ZM12.32 49.44V3.36H-1.68V49.44H12.32ZM5.32 -3.64H0.2V10.36H5.32V-3.64ZM7.2 3.36V0.799999H-6.8V3.36H7.2ZM0.2 7.8H39.88V-6.2H0.2V7.8ZM34.9303 5.74975L40.8823 11.7017L50.7817 1.80225L44.8297 -4.14975L34.9303 5.74975ZM20.04 34.68H31.112V20.68H20.04V34.68ZM38.112 27.68V3.36H24.112V27.68H38.112ZM31.112 -3.64H20.04V10.36H31.112V-3.64ZM13.04 3.36V27.68H27.04V3.36H13.04Z" fill="black" mask="url(#path-1-outside-1_3_22)"/>
</svg>
